<svg width="67" height="29" viewBox="0 0 67 29" fill="none" xmlns="http://www.w3.org/2000/svg">
<path d="M1 28C2.87597 23.9091 6.62791 13.5182 6.62791 4.68182H12.2558V13.2727L15.8372 8.97727V1H23V8.97727L15.8372 15.7273H23V28H15.8372V19.4091H12.2558L9.18605 28H1Z" fill="#E9EDEF" stroke="#E9EDEF"/>
<path d="M27.8467 9.0293C27.2282 9.0293 26.748 9.22949 26.4062 9.62988C26.0677 10.0303 25.8984 10.5397 25.8984 11.1582C25.8984 11.7799 26.0677 12.291 26.4062 12.6914C26.748 13.0918 27.2282 13.292 27.8467 13.292C28.4489 13.292 28.9144 13.0885 29.2432 12.6816C29.5719 12.2747 29.7363 11.7669 29.7363 11.1582C29.7363 10.5495 29.5719 10.0433 29.2432 9.63965C28.9144 9.23275 28.4489 9.0293 27.8467 9.0293ZM27.8467 14.1221C26.945 14.1221 26.2142 13.8535 25.6543 13.3164C25.0944 12.7793 24.8145 12.0599 24.8145 11.1582C24.8145 10.2533 25.0944 9.53385 25.6543 9C26.2174 8.46615 26.9482 8.19922 27.8467 8.19922C28.7321 8.19922 29.4482 8.47103 29.9951 9.01465C30.542 9.55501 30.8154 10.2695 30.8154 11.1582C30.8154 12.0469 30.542 12.763 29.9951 13.3066C29.4482 13.8503 28.7321 14.1221 27.8467 14.1221ZM40.2148 8.19922C40.8138 8.19922 41.3118 8.37988 41.709 8.74121C42.1061 9.10254 42.3047 9.58594 42.3047 10.1914V13.1406H43.0176C43.1413 13.1406 43.2292 13.1862 43.2812 13.2773C43.3366 13.3652 43.3643 13.4694 43.3643 13.5898C43.3643 13.6973 43.3333 13.7933 43.2715 13.8779C43.2096 13.9593 43.1217 14 43.0078 14H40.625C40.4883 14 40.3874 13.9609 40.3223 13.8828C40.2572 13.8047 40.2246 13.7038 40.2246 13.5801C40.2246 13.4596 40.2539 13.3571 40.3125 13.2725C40.3743 13.1846 40.4688 13.1406 40.5957 13.1406H41.3184V10.2793C41.3184 9.89193 41.2191 9.58757 41.0205 9.36621C40.8252 9.1416 40.5306 9.0293 40.1367 9.0293C39.6126 9.0293 39.1715 9.16927 38.8135 9.44922C38.4554 9.72917 38.1771 10.0531 37.9785 10.4209V13.1406H38.7842C38.9079 13.1406 38.9974 13.1862 39.0527 13.2773C39.1081 13.3652 39.1357 13.4694 39.1357 13.5898C39.1357 13.6973 39.1032 13.7933 39.0381 13.8779C38.9762 13.9593 38.8883 14 38.7744 14H36.1963C36.0596 14 35.9587 13.9609 35.8936 13.8828C35.8285 13.8047 35.7959 13.7038 35.7959 13.5801C35.7959 13.4596 35.8252 13.3571 35.8838 13.2725C35.9456 13.1846 36.04 13.1406 36.167 13.1406H36.9873V10.2793C36.9873 9.89193 36.888 9.58757 36.6895 9.36621C36.4941 9.1416 36.1995 9.0293 35.8057 9.0293C35.2555 9.0293 34.7917 9.15951 34.4141 9.41992C34.0397 9.68034 33.7598 9.99772 33.5742 10.3721V13.1406H34.4775C34.6012 13.1406 34.6891 13.1862 34.7412 13.2773C34.7965 13.3652 34.8242 13.4694 34.8242 13.5898C34.8242 13.6973 34.7933 13.7933 34.7314 13.8779C34.6696 13.9593 34.5817 14 34.4678 14H31.8848C31.748 14 31.6471 13.9609 31.582 13.8828C31.5169 13.8047 31.4844 13.7038 31.4844 13.5801C31.4844 13.4596 31.5137 13.3571 31.5723 13.2725C31.6341 13.1846 31.7285 13.1406 31.8555 13.1406H32.5781V9.21973L31.875 9.39062C31.8685 9.39388 31.8587 9.39714 31.8457 9.40039C31.8359 9.40039 31.8229 9.40039 31.8066 9.40039C31.709 9.40039 31.6178 9.36133 31.5332 9.2832C31.4486 9.20182 31.4062 9.11068 31.4062 9.00977C31.4062 8.89909 31.429 8.8112 31.4746 8.74609C31.5234 8.67773 31.5934 8.62891 31.6846 8.59961L33.0469 8.20898C33.0599 8.20898 33.068 8.20736 33.0713 8.2041C33.0745 8.20085 33.0827 8.19922 33.0957 8.19922H33.125C33.1934 8.19922 33.252 8.22038 33.3008 8.2627C33.3496 8.30176 33.374 8.3571 33.374 8.42871L33.4766 9.35156C33.6719 9.02279 33.9909 8.74935 34.4336 8.53125C34.8796 8.3099 35.3646 8.19922 35.8887 8.19922C36.3802 8.19922 36.7952 8.31478 37.1338 8.5459C37.4723 8.77702 37.71 9.07487 37.8467 9.43945C38.0713 9.11393 38.3854 8.82585 38.7891 8.5752C39.1927 8.32454 39.668 8.19922 40.2148 8.19922ZM45.5273 7.03223C45.3223 7.03223 45.1465 6.96061 45 6.81738C44.8568 6.6709 44.7852 6.49512 44.7852 6.29004C44.7852 6.08496 44.8568 5.91081 45 5.76758C45.1465 5.62109 45.3223 5.54785 45.5273 5.54785C45.7324 5.54785 45.9066 5.62109 46.0498 5.76758C46.193 5.91081 46.2646 6.08496 46.2646 6.29004C46.2646 6.49512 46.193 6.6709 46.0498 6.81738C45.9066 6.96061 45.7324 7.03223 45.5273 7.03223ZM44.0234 13.5947C44.0234 13.4743 44.0527 13.3717 44.1113 13.2871C44.1732 13.1992 44.2676 13.1553 44.3945 13.1553H45.0635V9.2002L44.3652 9.39062C44.3587 9.39388 44.349 9.39714 44.3359 9.40039C44.3262 9.40039 44.3132 9.40039 44.2969 9.40039C44.1992 9.40039 44.1081 9.36133 44.0234 9.2832C43.9388 9.20182 43.8965 9.11068 43.8965 9.00977C43.8965 8.9056 43.9193 8.81771 43.9648 8.74609C44.0137 8.67122 44.0837 8.6224 44.1748 8.59961L45.7373 8.20898C45.7471 8.20573 45.7585 8.2041 45.7715 8.2041C45.7845 8.20085 45.7992 8.19922 45.8154 8.19922C45.887 8.19922 45.9456 8.22038 45.9912 8.2627C46.04 8.30176 46.0645 8.3571 46.0645 8.42871V13.1553H46.8164C46.9401 13.1553 47.0296 13.2008 47.085 13.292C47.1403 13.3799 47.168 13.484 47.168 13.6045C47.168 13.7119 47.1354 13.8047 47.0703 13.8828C47.0085 13.9609 46.9206 14 46.8066 14H44.4238C44.2871 14 44.1862 13.9642 44.1211 13.8926C44.056 13.8177 44.0234 13.7184 44.0234 13.5947ZM50.166 13.3457C50.4785 13.3457 50.6803 13.2578 50.7715 13.082C50.8626 12.9062 51.001 12.8184 51.1865 12.8184C51.2874 12.8184 51.3704 12.8558 51.4355 12.9307C51.5039 13.0023 51.5381 13.0885 51.5381 13.1895C51.5381 13.4792 51.3639 13.7087 51.0156 13.8779C50.6673 14.0472 50.3288 14.1318 50 14.1318C49.6191 14.1318 49.2855 13.9984 48.999 13.7314C48.7126 13.4613 48.5693 13.1471 48.5693 12.7891V9.33203H47.8369C47.7002 9.33203 47.5993 9.29297 47.5342 9.21484C47.4691 9.13672 47.4365 9.03581 47.4365 8.91211C47.4365 8.79167 47.4658 8.6875 47.5244 8.59961C47.5863 8.51172 47.6807 8.46777 47.8076 8.46777H48.5693C48.5693 8.17155 48.5954 7.77604 48.6475 7.28125C48.6995 6.78646 48.8656 6.53906 49.1455 6.53906C49.2269 6.53906 49.2969 6.54883 49.3555 6.56836C49.4173 6.58789 49.4775 6.61882 49.5361 6.66113V6.75879C49.5361 6.80111 49.5378 6.84993 49.541 6.90527C49.5443 6.95736 49.5459 7.00456 49.5459 7.04688V8.46777H50.8252C50.9489 8.46777 51.0384 8.51335 51.0938 8.60449C51.1491 8.69564 51.1768 8.80143 51.1768 8.92188C51.1768 9.0293 51.1442 9.12533 51.0791 9.20996C51.0173 9.29134 50.9294 9.33203 50.8154 9.33203H49.5459V12.6377C49.5459 12.8916 49.6045 13.0739 49.7217 13.1846C49.8389 13.292 49.987 13.3457 50.166 13.3457ZM53.1006 11.2705C53.1006 11.9085 53.2992 12.3952 53.6963 12.7305C54.0967 13.0625 54.5882 13.2285 55.1709 13.2285C55.5843 13.2285 55.9082 13.152 56.1426 12.999C56.3802 12.8428 56.6064 12.6654 56.8213 12.4668C56.8701 12.4245 56.9222 12.3936 56.9775 12.374C57.0329 12.3512 57.0882 12.3398 57.1436 12.3398C57.2738 12.3398 57.3844 12.3805 57.4756 12.4619C57.5667 12.54 57.6123 12.6458 57.6123 12.7793C57.6123 13.196 57.3096 13.5247 56.7041 13.7656C56.1019 14.0033 55.5778 14.1221 55.1318 14.1221C54.2399 14.1221 53.5042 13.8584 52.9248 13.3311C52.3486 12.8005 52.0605 12.0876 52.0605 11.1924C52.0605 10.307 52.3258 9.58757 52.8564 9.03418C53.387 8.47754 54.1064 8.19922 55.0146 8.19922C55.6657 8.19922 56.2598 8.42546 56.7969 8.87793C57.334 9.32715 57.6025 9.9082 57.6025 10.6211C57.6025 10.8652 57.526 11.0117 57.373 11.0605C57.2233 11.1094 57.0329 11.1452 56.8018 11.168L53.1006 11.2705ZM56.377 10.3086C56.377 9.8431 56.2337 9.51432 55.9473 9.32227C55.6641 9.12695 55.3532 9.0293 55.0146 9.0293C54.4417 9.0293 53.986 9.1709 53.6475 9.4541C53.3122 9.7373 53.1234 10.1133 53.0811 10.582L56.0156 10.5186C56.1068 10.5153 56.1898 10.499 56.2646 10.4697C56.3395 10.4372 56.377 10.3835 56.377 10.3086ZM62.2705 13.5801C62.2705 13.4596 62.2998 13.3571 62.3584 13.2725C62.417 13.1846 62.5098 13.1406 62.6367 13.1406H63.208L61.7578 11.6904L60.21 13.1406H60.5908C60.7145 13.1406 60.8024 13.1862 60.8545 13.2773C60.9098 13.3652 60.9375 13.4694 60.9375 13.5898C60.9375 13.6973 60.9066 13.7933 60.8447 13.8779C60.7829 13.9593 60.695 14 60.5811 14H58.5986C58.4619 14 58.361 13.9609 58.2959 13.8828C58.2308 13.8047 58.1982 13.7038 58.1982 13.5801C58.1982 13.4596 58.2275 13.3571 58.2861 13.2725C58.348 13.1846 58.4424 13.1406 58.5693 13.1406H59.2285L61.2695 11.1924L59.4385 9.33203H58.7012C58.5645 9.33203 58.4635 9.29297 58.3984 9.21484C58.3333 9.13346 58.3008 9.03092 58.3008 8.90723C58.3008 8.78678 58.3301 8.68424 58.3887 8.59961C58.4473 8.51172 58.54 8.46777 58.667 8.46777H60.791C60.9147 8.46777 61.0026 8.51335 61.0547 8.60449C61.11 8.69238 61.1377 8.79655 61.1377 8.91699C61.1377 9.02441 61.1068 9.12044 61.0449 9.20508C60.9831 9.28971 60.8952 9.33203 60.7812 9.33203H60.6006L61.8994 10.5918L63.208 9.33203H62.9688C62.832 9.33203 62.7311 9.29297 62.666 9.21484C62.6009 9.13346 62.5684 9.03092 62.5684 8.90723C62.5684 8.78678 62.5977 8.68424 62.6562 8.59961C62.7181 8.51172 62.8125 8.46777 62.9395 8.46777H65.0586C65.1823 8.46777 65.2718 8.51335 65.3271 8.60449C65.3825 8.69238 65.4102 8.79655 65.4102 8.91699C65.4102 9.02441 65.3776 9.12044 65.3125 9.20508C65.2507 9.28971 65.1628 9.33203 65.0488 9.33203H64.2676L62.4072 11.0801L64.5508 13.1406H65.0586C65.1823 13.1406 65.2718 13.1862 65.3271 13.2773C65.3825 13.3652 65.4102 13.4694 65.4102 13.5898C65.4102 13.6973 65.3776 13.7933 65.3125 13.8779C65.2507 13.9593 65.1628 14 65.0488 14H62.6709C62.5342 14 62.4333 13.9609 62.3682 13.8828C62.3031 13.8047 62.2705 13.7038 62.2705 13.5801Z" fill="#E9EDEF"/>
<path d="M29.0098 18.2803C28.2285 18.2803 27.7109 18.4284 27.457 18.7246C27.2031 19.0176 27.0762 19.348 27.0762 19.7158C27.0762 20.0316 27.1852 20.2871 27.4033 20.4824C27.6247 20.6745 27.9535 20.8242 28.3896 20.9316L29.791 21.2783C30.4323 21.4378 30.9548 21.6999 31.3584 22.0645C31.762 22.4258 31.9639 22.9922 31.9639 23.7637C31.9639 24.6068 31.6302 25.2122 30.9629 25.5801C30.2956 25.9479 29.5355 26.1318 28.6826 26.1318C28.3376 26.1318 27.9844 26.0863 27.623 25.9951C27.2617 25.904 26.9248 25.751 26.6123 25.5361C26.5993 25.6468 26.5651 25.7721 26.5098 25.9121C26.4544 26.0521 26.3714 26.1221 26.2607 26.1221C26.1436 26.1221 26.0492 26.0977 25.9775 26.0488C25.9059 26 25.8636 25.9202 25.8506 25.8096L25.5723 23.3877C25.5723 23.2575 25.6113 23.1615 25.6895 23.0996C25.7676 23.0345 25.8848 23.002 26.041 23.002C26.1387 23.002 26.2249 23.0312 26.2998 23.0898C26.3747 23.1452 26.4186 23.2217 26.4316 23.3193L26.5098 23.998C26.5423 24.3008 26.7669 24.5889 27.1836 24.8623C27.6003 25.1325 28.0592 25.2676 28.5605 25.2676C29.1172 25.2676 29.6559 25.1683 30.1768 24.9697C30.7008 24.7712 30.9629 24.3675 30.9629 23.7588C30.9629 23.3193 30.8294 23.0133 30.5625 22.8408C30.2988 22.6683 29.9847 22.5299 29.6201 22.4258L28.0186 21.9717C27.4359 21.8415 26.9525 21.6104 26.5684 21.2783C26.1875 20.943 25.9971 20.4482 25.9971 19.7939C25.9971 19.0811 26.2754 18.5228 26.832 18.1191C27.3919 17.7122 28.0641 17.5088 28.8486 17.5088C29.1872 17.5088 29.5339 17.5511 29.8887 17.6357C30.2467 17.7204 30.543 17.8604 30.7773 18.0557C30.7773 17.9189 30.8197 17.7952 30.9043 17.6846C30.9922 17.5706 31.1029 17.5137 31.2363 17.5137C31.334 17.5137 31.4202 17.543 31.4951 17.6016C31.57 17.6602 31.6139 17.7383 31.627 17.8359L31.6611 19.7744C31.6611 19.9144 31.6188 20.0169 31.5342 20.082C31.4495 20.1439 31.3421 20.1748 31.2119 20.1748C31.098 20.1748 31.0036 20.1504 30.9287 20.1016C30.8571 20.0527 30.8148 19.9746 30.8018 19.8672L30.7822 19.3008C30.7399 18.9329 30.5381 18.6709 30.1768 18.5146C29.8154 18.3584 29.4264 18.2803 29.0098 18.2803ZM35.2549 25.3457C35.5674 25.3457 35.7692 25.2578 35.8604 25.082C35.9515 24.9062 36.0898 24.8184 36.2754 24.8184C36.3763 24.8184 36.4593 24.8558 36.5244 24.9307C36.5928 25.0023 36.627 25.0885 36.627 25.1895C36.627 25.4792 36.4528 25.7087 36.1045 25.8779C35.7562 26.0472 35.4176 26.1318 35.0889 26.1318C34.708 26.1318 34.3743 25.9984 34.0879 25.7314C33.8014 25.4613 33.6582 25.1471 33.6582 24.7891V21.332H32.9258C32.7891 21.332 32.6882 21.293 32.623 21.2148C32.5579 21.1367 32.5254 21.0358 32.5254 20.9121C32.5254 20.7917 32.5547 20.6875 32.6133 20.5996C32.6751 20.5117 32.7695 20.4678 32.8965 20.4678H33.6582C33.6582 20.1715 33.6842 19.776 33.7363 19.2812C33.7884 18.7865 33.9544 18.5391 34.2344 18.5391C34.3158 18.5391 34.3857 18.5488 34.4443 18.5684C34.5062 18.5879 34.5664 18.6188 34.625 18.6611V18.7588C34.625 18.8011 34.6266 18.8499 34.6299 18.9053C34.6331 18.9574 34.6348 19.0046 34.6348 19.0469V20.4678H35.9141C36.0378 20.4678 36.1273 20.5133 36.1826 20.6045C36.238 20.6956 36.2656 20.8014 36.2656 20.9219C36.2656 21.0293 36.2331 21.1253 36.168 21.21C36.1061 21.2913 36.0182 21.332 35.9043 21.332H34.6348V24.6377C34.6348 24.8916 34.6934 25.0739 34.8105 25.1846C34.9277 25.292 35.0758 25.3457 35.2549 25.3457ZM40.1816 21.0293C39.5632 21.0293 39.083 21.2295 38.7412 21.6299C38.4027 22.0303 38.2334 22.5397 38.2334 23.1582C38.2334 23.7799 38.4027 24.291 38.7412 24.6914C39.083 25.0918 39.5632 25.292 40.1816 25.292C40.7839 25.292 41.2493 25.0885 41.5781 24.6816C41.9069 24.2747 42.0713 23.7669 42.0713 23.1582C42.0713 22.5495 41.9069 22.0433 41.5781 21.6396C41.2493 21.2327 40.7839 21.0293 40.1816 21.0293ZM40.1816 26.1221C39.2799 26.1221 38.5492 25.8535 37.9893 25.3164C37.4294 24.7793 37.1494 24.0599 37.1494 23.1582C37.1494 22.2533 37.4294 21.5339 37.9893 21C38.5524 20.4661 39.2832 20.1992 40.1816 20.1992C41.0671 20.1992 41.7832 20.471 42.3301 21.0146C42.877 21.555 43.1504 22.2695 43.1504 23.1582C43.1504 24.0469 42.877 24.763 42.3301 25.3066C41.7832 25.8503 41.0671 26.1221 40.1816 26.1221ZM47.1006 20.1992C47.5921 20.1992 48.0641 20.3001 48.5166 20.502C48.9723 20.7005 49.2002 21.1042 49.2002 21.7129C49.2002 21.9049 49.1628 22.0677 49.0879 22.2012C49.013 22.3314 48.8926 22.3965 48.7266 22.3965C48.4824 22.3965 48.3262 22.2549 48.2578 21.9717C48.1895 21.6852 48.1243 21.4118 48.0625 21.1514C47.903 21.109 47.7451 21.0781 47.5889 21.0586C47.4359 21.0391 47.2845 21.0293 47.1348 21.0293C46.5065 21.0293 45.9808 21.2132 45.5576 21.5811C45.1344 21.9456 44.9229 22.4486 44.9229 23.0898C44.9229 23.7832 45.1296 24.3008 45.543 24.6426C45.9596 24.9811 46.4333 25.1504 46.9639 25.1504C47.2406 25.1504 47.5189 25.0983 47.7988 24.9941C48.0788 24.8867 48.3343 24.7305 48.5654 24.5254C48.611 24.4863 48.6598 24.4554 48.7119 24.4326C48.764 24.4098 48.8177 24.3984 48.873 24.3984C49.0065 24.3984 49.1172 24.4326 49.2051 24.501C49.2962 24.5661 49.3418 24.6589 49.3418 24.7793C49.3418 25.196 49.0618 25.5247 48.502 25.7656C47.9421 26.0033 47.4489 26.1221 47.0225 26.1221C46.0882 26.1221 45.3232 25.8535 44.7275 25.3164C44.1351 24.776 43.8389 24.0339 43.8389 23.0898C43.8389 22.1654 44.1628 21.4525 44.8105 20.9512C45.4616 20.4499 46.2249 20.1992 47.1006 20.1992ZM51.7881 17.5088C51.8564 17.5088 51.9167 17.5316 51.9688 17.5771C52.0208 17.6195 52.0469 17.6764 52.0469 17.748V22.9727C52.4245 22.7188 52.82 22.4502 53.2334 22.167C53.6468 21.8838 54.0374 21.6217 54.4053 21.3809C54.4118 21.3809 54.3402 21.3809 54.1904 21.3809C54.0407 21.3809 53.9398 21.3809 53.8877 21.3809C53.7607 21.3809 53.6663 21.3385 53.6045 21.2539C53.5459 21.166 53.5166 21.0618 53.5166 20.9414C53.5166 20.8177 53.5492 20.7168 53.6143 20.6387C53.6794 20.5605 53.7803 20.5215 53.917 20.5215H56.1777C56.2917 20.5215 56.3796 20.5394 56.4414 20.5752C56.5065 20.6077 56.5391 20.6777 56.5391 20.7852C56.5391 20.9056 56.5114 21.0358 56.4561 21.1758C56.4007 21.3125 56.3112 21.3809 56.1875 21.3809H55.6455C55.5153 21.3809 55.4014 21.4167 55.3037 21.4883C55.2093 21.5599 55.1198 21.6266 55.0352 21.6885L53.6191 22.7578L55.0352 24.5791C55.2109 24.8232 55.3818 24.9681 55.5479 25.0137C55.7139 25.0592 55.9531 25.082 56.2656 25.082H56.3389C56.5537 25.082 56.7018 25.1113 56.7832 25.1699C56.8646 25.2253 56.9053 25.3457 56.9053 25.5312C56.9053 25.7233 56.8467 25.8503 56.7295 25.9121C56.6123 25.9707 56.4447 26 56.2266 26H54.0977C53.974 26 53.8812 25.9577 53.8193 25.873C53.7575 25.7852 53.7266 25.681 53.7266 25.5605C53.7266 25.4368 53.7575 25.3359 53.8193 25.2578C53.8844 25.1797 53.987 25.1406 54.127 25.1406H54.415L52.9453 23.1729L52.0469 23.7197V25.1406H52.7891C52.9128 25.1406 53.0007 25.1862 53.0527 25.2773C53.1081 25.3652 53.1357 25.4694 53.1357 25.5898C53.1357 25.6973 53.1048 25.7933 53.043 25.8779C52.9811 25.9593 52.8932 26 52.7793 26H50.3184C50.1816 26 50.0807 25.9609 50.0156 25.8828C49.9505 25.8047 49.918 25.7038 49.918 25.5801C49.918 25.4596 49.9473 25.3571 50.0059 25.2725C50.0677 25.1846 50.1621 25.1406 50.2891 25.1406H51.0459V18.5586L49.8984 18.8613C49.8854 18.8613 49.8757 18.863 49.8691 18.8662C49.8659 18.8695 49.8577 18.8711 49.8447 18.8711C49.7438 18.8711 49.6543 18.8271 49.5762 18.7393C49.498 18.6481 49.459 18.5521 49.459 18.4512C49.459 18.3112 49.4948 18.2201 49.5664 18.1777C49.638 18.1322 49.7275 18.0931 49.835 18.0605L51.7148 17.5186C51.7214 17.5153 51.7311 17.5137 51.7441 17.5137C51.7572 17.5104 51.7718 17.5088 51.7881 17.5088ZM57.6621 21.7959C57.6621 21.1676 57.8867 20.7445 58.3359 20.5264C58.7852 20.3083 59.2653 20.1992 59.7764 20.1992C60.1084 20.1992 60.4372 20.2692 60.7627 20.4092C61.0882 20.5459 61.3112 20.7217 61.4316 20.9365L61.4365 20.5215C61.4365 20.4206 61.4723 20.3408 61.5439 20.2822C61.6156 20.2204 61.7018 20.1895 61.8027 20.1895C61.946 20.1895 62.0534 20.222 62.125 20.2871C62.1966 20.3522 62.2324 20.4466 62.2324 20.5703L62.2129 21.9814C62.1999 22.0921 62.1576 22.1768 62.0859 22.2354C62.0143 22.2907 61.9232 22.3184 61.8125 22.3184C61.7051 22.3184 61.6335 22.2858 61.5977 22.2207C61.5618 22.1556 61.5277 22.0628 61.4951 21.9424C61.3844 21.6006 61.1549 21.3385 60.8066 21.1562C60.4616 20.974 60.1149 20.8828 59.7666 20.8828C59.4671 20.8828 59.2051 20.9414 58.9805 21.0586C58.7559 21.1758 58.6436 21.3532 58.6436 21.5908C58.6436 21.7959 58.7103 21.9554 58.8438 22.0693C58.9772 22.1833 59.1937 22.2777 59.4932 22.3525L60.7432 22.7627C61.1794 22.9092 61.5749 23.0947 61.9297 23.3193C62.2845 23.5439 62.4619 23.9313 62.4619 24.4814C62.4619 25.0218 62.2764 25.432 61.9053 25.7119C61.5374 25.9919 61.0199 26.1318 60.3525 26.1318C60.0042 26.1318 59.6217 26.0765 59.2051 25.9658C58.7884 25.8519 58.4873 25.6924 58.3018 25.4873C58.3018 25.7021 58.2627 25.8421 58.1846 25.9072C58.1097 25.9691 58.0169 26 57.9062 26C57.7826 26 57.6784 25.9723 57.5938 25.917C57.5124 25.8617 57.4717 25.7689 57.4717 25.6387V23.9883C57.4749 23.8874 57.514 23.8109 57.5889 23.7588C57.6637 23.7067 57.7484 23.6807 57.8428 23.6807C57.986 23.6807 58.0853 23.7148 58.1406 23.7832C58.1992 23.8483 58.2432 23.9443 58.2725 24.0713C58.3734 24.514 58.6061 24.846 58.9707 25.0674C59.3353 25.2887 59.778 25.3994 60.2988 25.3994C60.6146 25.3994 60.8848 25.3392 61.1094 25.2188C61.3372 25.0983 61.4512 24.9014 61.4512 24.6279C61.4512 24.3545 61.3861 24.1543 61.2559 24.0273C61.1257 23.9004 60.8945 23.7865 60.5625 23.6855L59.2344 23.2705C58.821 23.1403 58.4548 22.9678 58.1357 22.7529C57.82 22.5381 57.6621 22.2191 57.6621 21.7959Z" fill="#E9EDEF"/>
</svg>
